<svg width="31" height="31" viewBox="0 0 31 31" fill="none" xmlns="http://www.w3.org/2000/svg">
<g id="Support, Help, Question/24-support-circle-checkmark">
<rect id="Rectangle 24" x="0.5" y="0.914062" width="29" height="29" rx="14.5" fill="white"/>
<g id="Group">
<path id="Path" d="M9.6748 14.2142C9.6748 13.1283 10.5551 12.248 11.641 12.248C12.7268 12.248 13.6071 13.1283 13.6071 14.2142C13.6071 16.6712 9.6748 16.6712 9.6748 19.5818H13.6071" stroke="#322583" stroke-width="1.5" stroke-linecap="round" stroke-linejoin="round"/>
<path id="Path_2" d="M20.2123 19.5793V12.9258C20.2137 12.6226 20.0137 12.3552 19.7224 12.2709C19.4311 12.1866 19.1192 12.3059 18.9585 12.563C18.1221 13.9156 17.2097 15.4509 16.4214 16.8075C16.2902 17.0345 16.2905 17.3143 16.4222 17.5411C16.5539 17.7678 16.7968 17.9067 17.059 17.9053H21.3261" stroke="#322583" stroke-width="1.5" stroke-linecap="round" stroke-linejoin="round"/>
</g>
</g>
</svg>
