<svg width="149" height="207" viewBox="0 0 149 207" fill="none" xmlns="http://www.w3.org/2000/svg">
<path d="M137.622 63.4268C135.457 40.9222 116.031 33.3804 91.4835 31.2294V0H72.4877V30.3959C67.5002 30.3959 62.3916 30.49 57.3234 30.5976V0H38.3276L38.3142 31.2025C34.2004 31.2832 30.1539 31.3638 26.215 31.3638V31.2697L0.0134485 31.2563V51.5561C0.0134485 51.5561 14.0485 51.2872 13.8065 51.5426C21.5097 51.5426 24.0102 56.0059 24.7362 59.8642V95.4359C25.2739 95.4359 25.9595 95.4628 26.7393 95.5703H24.7362L24.7227 145.406C24.3866 147.825 22.9616 151.684 17.5842 151.697C17.8262 151.912 3.77765 151.697 3.77765 151.697L0 174.39H24.7362C29.3339 174.39 33.8644 174.471 38.3007 174.498L38.3142 206.076H57.2965V174.834C62.4992 174.941 67.5405 174.982 72.4743 174.982L72.4609 206.076H91.4566V174.565C123.399 172.736 145.782 164.684 148.551 134.678C150.797 110.52 139.437 99.7244 121.301 95.3687C132.339 89.7762 139.235 79.8951 137.622 63.4268ZM111.03 130.94C111.03 154.534 70.6325 151.859 57.7401 151.859V110.009C70.6325 110.036 111.03 106.339 111.03 130.94ZM102.185 71.9097C102.185 93.379 68.4681 90.8651 57.7401 90.8785V52.9408C68.4816 52.9408 102.198 49.5261 102.185 71.9097Z" fill="#252528"/>
<path d="M24.7617 94.6025H27.5849V96.6863H24.7617V94.6025Z" fill="#252528"/>
</svg>
